# xmcd
# 
# Track frame offsets:
#     150
#     14059
#     31024
#     55027
#     68596
#     82172
#     105231
#     121987
# 
# Disc length: 1957
# 
# Revision: 3
# Processed by: cddbd v1.5.2PL0 Copyright (c) Steve Scherf et al.
# Submitted via: fre:ac v1.0.17
# 
DISCID=5b07a308
DTITLE=Various Artist - New Project
DYEAR=0
DGENRE=
TTITLE0=Montrose - Track01
TTITLE1=Montrose - Track02
TTITLE2=Montrose - Track03
TTITLE3=Montrose - Track04
TTITLE4=Montrose - Track05
TTITLE5=Montrose - Track06
TTITLE6=Montrose - Track07
TTITLE7=Montrose - Track08
EXTD=
EXTT0=Track 1
EXTT1=Track 2
EXTT2=Track 3
EXTT3=Track 4
EXTT4=Track 5
EXTT5=Track 6
EXTT6=Track 7
EXTT7=Track 8
PLAYORDER=
